<svg xmlns="http://www.w3.org/2000/svg" viewBox="0 0 24 24"><path d="M 15 2 L 13 4 L 15.5 6.5 L 12.84375 9.15625 C 11.738281 8.425781 10.425781 8 9 8 C 5.132813 8 2 11.132813 2 15 C 2 18.867188 5.132813 22 9 22 C 12.867188 22 16 18.867188 16 15 C 16 13.574219 15.574219 12.261719 14.84375 11.15625 L 17.5 8.5 L 20 11 L 22 9 L 19.5 6.5 L 22 4 L 20 2 L 17.5 4.5 Z M 9 11 C 11.210938 11 13 12.789063 13 15 C 13 17.210938 11.210938 19 9 19 C 6.789063 19 5 17.210938 5 15 C 5 12.789063 6.789063 11 9 11 Z"></path></svg>
