<svg xmlns="http://www.w3.org/2000/svg" viewBox="0 0 24 24"><path d="M 16 2 L 16 4 L 18.5625 4 L 16.59375 5.96875 C 15.710938 5.359375 14.65625 5 13.5 5 C 10.460938 5 8 7.460938 8 10.5 C 8 12.902344 9.542969 14.9375 11.6875 15.6875 C 12.339844 15.332031 12.832031 14.695313 12.96875 13.9375 C 11.296875 13.671875 10 12.242188 10 10.5 C 10 8.570313 11.570313 7 13.5 7 C 15.429688 7 17 8.570313 17 10.5 C 17 10.949219 16.90625 11.386719 16.75 11.78125 C 16.902344 12.335938 17 12.898438 17 13.5 C 17 13.964844 16.9375 14.40625 16.84375 14.84375 C 18.144531 13.835938 19 12.273438 19 10.5 C 19 9.34375 18.640625 8.289063 18.03125 7.40625 L 20 5.4375 L 20 8 L 22 8 L 22 2 Z M 12.3125 8.3125 C 11.660156 8.667969 11.167969 9.304688 11.03125 10.0625 C 12.703125 10.328125 14 11.757813 14 13.5 C 14 15.429688 12.429688 17 10.5 17 C 8.570313 17 7 15.429688 7 13.5 C 7 13.050781 7.09375 12.613281 7.25 12.21875 C 7.09375 11.664063 7 11.097656 7 10.5 C 7 10.035156 7.0625 9.59375 7.15625 9.15625 C 5.855469 10.164063 5 11.726563 5 13.5 C 5 14.65625 5.359375 15.710938 5.96875 16.59375 L 5 17.5625 L 3.71875 16.28125 L 2.28125 17.71875 L 3.5625 19 L 2.28125 20.28125 L 3.71875 21.71875 L 5 20.4375 L 6.28125 21.71875 L 7.71875 20.28125 L 6.4375 19 L 7.40625 18.03125 C 8.289063 18.640625 9.34375 19 10.5 19 C 13.539063 19 16 16.539063 16 13.5 C 16 11.097656 14.457031 9.0625 12.3125 8.3125 Z"></path></svg>
